<mxfile host="app.diagrams.net" agent="Mozilla/5.0 (Windows NT 10.0; Win64; x64) AppleWebKit/537.36 (KHTML, like Gecko) Chrome/137.0.0.0 Safari/537.36" version="27.1.5" pages="2">
  <diagram name="Halaman-1" id="HnlsQwrpNUmik4nNJ_fF">
    <mxGraphModel dx="1585" dy="929" grid="1" gridSize="10" guides="1" tooltips="1" connect="1" arrows="1" fold="1" page="1" pageScale="1" pageWidth="827" pageHeight="1169" background="light-dark(#FFFFFF,#FFFFFF)" math="0" shadow="0">
      <root>
        <mxCell id="0" />
        <mxCell id="1" parent="0" />
        <mxCell id="AxBwJtUhotN-UU5tkevl-29" style="edgeStyle=orthogonalEdgeStyle;rounded=0;orthogonalLoop=1;jettySize=auto;html=1;exitX=1;exitY=0.5;exitDx=0;exitDy=0;entryX=0;entryY=0.5;entryDx=0;entryDy=0;fontColor=light-dark(#000000,#000000);strokeColor=light-dark(#000000,#000000);" edge="1" parent="1" source="AxBwJtUhotN-UU5tkevl-16" target="xdSkrrXWxzgrgBIP0NKi-7">
          <mxGeometry relative="1" as="geometry">
            <mxPoint x="366.9729729729729" y="185" as="targetPoint" />
          </mxGeometry>
        </mxCell>
        <mxCell id="xdSkrrXWxzgrgBIP0NKi-40" value="Ya" style="edgeLabel;html=1;align=center;verticalAlign=middle;resizable=0;points=[];labelBackgroundColor=none;fontColor=light-dark(#000000,#000000);" vertex="1" connectable="0" parent="AxBwJtUhotN-UU5tkevl-29">
          <mxGeometry x="-0.1613" y="-2" relative="1" as="geometry">
            <mxPoint y="-9" as="offset" />
          </mxGeometry>
        </mxCell>
        <mxCell id="xdSkrrXWxzgrgBIP0NKi-42" value="Ya" style="edgeLabel;html=1;align=center;verticalAlign=middle;resizable=0;points=[];labelBackgroundColor=none;fontColor=light-dark(#000000,#000000);" vertex="1" connectable="0" parent="AxBwJtUhotN-UU5tkevl-29">
          <mxGeometry x="-0.1613" y="-2" relative="1" as="geometry">
            <mxPoint x="132" y="83" as="offset" />
          </mxGeometry>
        </mxCell>
        <mxCell id="xdSkrrXWxzgrgBIP0NKi-43" value="Ya" style="edgeLabel;html=1;align=center;verticalAlign=middle;resizable=0;points=[];labelBackgroundColor=none;fontColor=light-dark(#000000,#000000);" vertex="1" connectable="0" parent="AxBwJtUhotN-UU5tkevl-29">
          <mxGeometry x="-0.1613" y="-2" relative="1" as="geometry">
            <mxPoint x="132" y="183" as="offset" />
          </mxGeometry>
        </mxCell>
        <mxCell id="xdSkrrXWxzgrgBIP0NKi-44" value="Ya" style="edgeLabel;html=1;align=center;verticalAlign=middle;resizable=0;points=[];labelBackgroundColor=none;fontColor=light-dark(#000000,#000000);" vertex="1" connectable="0" parent="AxBwJtUhotN-UU5tkevl-29">
          <mxGeometry x="-0.1613" y="-2" relative="1" as="geometry">
            <mxPoint x="129" y="293" as="offset" />
          </mxGeometry>
        </mxCell>
        <mxCell id="xdSkrrXWxzgrgBIP0NKi-45" value="Ya" style="edgeLabel;html=1;align=center;verticalAlign=middle;resizable=0;points=[];labelBackgroundColor=none;fontColor=light-dark(#000000,#000000);" vertex="1" connectable="0" parent="AxBwJtUhotN-UU5tkevl-29">
          <mxGeometry x="-0.1613" y="-2" relative="1" as="geometry">
            <mxPoint x="128" y="393" as="offset" />
          </mxGeometry>
        </mxCell>
        <mxCell id="xdSkrrXWxzgrgBIP0NKi-46" value="Ya" style="edgeLabel;html=1;align=center;verticalAlign=middle;resizable=0;points=[];labelBackgroundColor=none;fontColor=light-dark(#000000,#000000);rotation=0;" vertex="1" connectable="0" parent="AxBwJtUhotN-UU5tkevl-29">
          <mxGeometry x="-0.1613" y="-2" relative="1" as="geometry">
            <mxPoint x="122" y="503" as="offset" />
          </mxGeometry>
        </mxCell>
        <mxCell id="xdSkrrXWxzgrgBIP0NKi-47" style="edgeStyle=orthogonalEdgeStyle;rounded=0;orthogonalLoop=1;jettySize=auto;html=1;exitX=0.5;exitY=0;exitDx=0;exitDy=0;entryX=0.5;entryY=0;entryDx=0;entryDy=0;strokeColor=light-dark(#000000,#000000);" edge="1" parent="1" source="AxBwJtUhotN-UU5tkevl-16" target="AxBwJtUhotN-UU5tkevl-25">
          <mxGeometry relative="1" as="geometry" />
        </mxCell>
        <mxCell id="xdSkrrXWxzgrgBIP0NKi-48" value="Tidak" style="edgeLabel;html=1;align=center;verticalAlign=middle;resizable=0;points=[];labelBackgroundColor=none;fontColor=light-dark(#000000,#000000);" vertex="1" connectable="0" parent="xdSkrrXWxzgrgBIP0NKi-47">
          <mxGeometry x="0.0013" y="-3" relative="1" as="geometry">
            <mxPoint y="-4" as="offset" />
          </mxGeometry>
        </mxCell>
        <mxCell id="xdSkrrXWxzgrgBIP0NKi-55" value="Tidak" style="edgeLabel;html=1;align=center;verticalAlign=middle;resizable=0;points=[];labelBackgroundColor=none;fontColor=light-dark(#000000,#000000);" vertex="1" connectable="0" parent="xdSkrrXWxzgrgBIP0NKi-47">
          <mxGeometry x="0.0013" y="-3" relative="1" as="geometry">
            <mxPoint x="133" y="175" as="offset" />
          </mxGeometry>
        </mxCell>
        <mxCell id="xdSkrrXWxzgrgBIP0NKi-56" value="Tidak" style="edgeLabel;html=1;align=center;verticalAlign=middle;resizable=0;points=[];labelBackgroundColor=none;fontColor=light-dark(#000000,#000000);" vertex="1" connectable="0" parent="xdSkrrXWxzgrgBIP0NKi-47">
          <mxGeometry x="0.0013" y="-3" relative="1" as="geometry">
            <mxPoint x="135" y="277" as="offset" />
          </mxGeometry>
        </mxCell>
        <mxCell id="xdSkrrXWxzgrgBIP0NKi-57" value="Tidak" style="edgeLabel;html=1;align=center;verticalAlign=middle;resizable=0;points=[];labelBackgroundColor=none;fontColor=light-dark(#000000,#000000);" vertex="1" connectable="0" parent="xdSkrrXWxzgrgBIP0NKi-47">
          <mxGeometry x="0.0013" y="-3" relative="1" as="geometry">
            <mxPoint x="137" y="388" as="offset" />
          </mxGeometry>
        </mxCell>
        <mxCell id="xdSkrrXWxzgrgBIP0NKi-58" value="Tidak" style="edgeLabel;html=1;align=center;verticalAlign=middle;resizable=0;points=[];labelBackgroundColor=none;fontColor=light-dark(#000000,#000000);" vertex="1" connectable="0" parent="xdSkrrXWxzgrgBIP0NKi-47">
          <mxGeometry x="0.0013" y="-3" relative="1" as="geometry">
            <mxPoint x="139" y="489" as="offset" />
          </mxGeometry>
        </mxCell>
        <mxCell id="xdSkrrXWxzgrgBIP0NKi-59" value="Tidak" style="edgeLabel;html=1;align=center;verticalAlign=middle;resizable=0;points=[];labelBackgroundColor=none;fontColor=light-dark(#000000,#000000);" vertex="1" connectable="0" parent="xdSkrrXWxzgrgBIP0NKi-47">
          <mxGeometry x="0.0013" y="-3" relative="1" as="geometry">
            <mxPoint x="139" y="597" as="offset" />
          </mxGeometry>
        </mxCell>
        <mxCell id="AxBwJtUhotN-UU5tkevl-16" value="&lt;font&gt;Filter&lt;/font&gt;" style="rhombus;whiteSpace=wrap;html=1;fillColor=none;strokeColor=light-dark(#000000,#000000);fontColor=light-dark(#000000,#000000);" vertex="1" parent="1">
          <mxGeometry x="192" y="161.25" width="80" height="47.5" as="geometry" />
        </mxCell>
        <mxCell id="xdSkrrXWxzgrgBIP0NKi-1" style="edgeStyle=orthogonalEdgeStyle;rounded=0;orthogonalLoop=1;jettySize=auto;html=1;exitX=0.5;exitY=1;exitDx=0;exitDy=0;entryX=0.5;entryY=0;entryDx=0;entryDy=0;strokeColor=light-dark(#000000,#000000);" edge="1" parent="1" source="AxBwJtUhotN-UU5tkevl-24" target="AxBwJtUhotN-UU5tkevl-25">
          <mxGeometry relative="1" as="geometry" />
        </mxCell>
        <mxCell id="AxBwJtUhotN-UU5tkevl-24" value="&lt;font&gt;Mulai&lt;/font&gt;" style="ellipse;whiteSpace=wrap;html=1;fillColor=none;strokeColor=light-dark(#000000,#000000);fontColor=light-dark(#000000,#000000);" vertex="1" parent="1">
          <mxGeometry x="40" y="40" width="90" height="40" as="geometry" />
        </mxCell>
        <mxCell id="AxBwJtUhotN-UU5tkevl-42" style="edgeStyle=orthogonalEdgeStyle;rounded=0;orthogonalLoop=1;jettySize=auto;html=1;exitX=0.5;exitY=1;exitDx=0;exitDy=0;entryX=0.5;entryY=0;entryDx=0;entryDy=0;fontColor=light-dark(#000000,#000000);strokeColor=light-dark(#000000,#000000);" edge="1" parent="1" source="AxBwJtUhotN-UU5tkevl-25" target="AxBwJtUhotN-UU5tkevl-34">
          <mxGeometry relative="1" as="geometry" />
        </mxCell>
        <mxCell id="xdSkrrXWxzgrgBIP0NKi-3" style="edgeStyle=orthogonalEdgeStyle;rounded=0;orthogonalLoop=1;jettySize=auto;html=1;exitX=1;exitY=0.5;exitDx=0;exitDy=0;entryX=0;entryY=0.5;entryDx=0;entryDy=0;strokeColor=light-dark(#000000,#000000);" edge="1" parent="1" source="AxBwJtUhotN-UU5tkevl-25" target="AxBwJtUhotN-UU5tkevl-16">
          <mxGeometry relative="1" as="geometry" />
        </mxCell>
        <mxCell id="AxBwJtUhotN-UU5tkevl-25" value="&lt;font&gt;Peta Kerawanan DBD&lt;/font&gt;" style="rounded=1;whiteSpace=wrap;html=1;fillColor=none;strokeColor=light-dark(#000000,#000000);fontColor=light-dark(#000000,#000000);" vertex="1" parent="1">
          <mxGeometry x="35" y="160" width="100" height="50" as="geometry" />
        </mxCell>
        <mxCell id="AxBwJtUhotN-UU5tkevl-75" style="edgeStyle=orthogonalEdgeStyle;rounded=0;orthogonalLoop=1;jettySize=auto;html=1;exitX=0.5;exitY=1;exitDx=0;exitDy=0;entryX=0.5;entryY=0;entryDx=0;entryDy=0;fontColor=light-dark(#000000,#000000);strokeColor=light-dark(#000000,#000000);" edge="1" parent="1" source="AxBwJtUhotN-UU5tkevl-34" target="AxBwJtUhotN-UU5tkevl-63">
          <mxGeometry relative="1" as="geometry" />
        </mxCell>
        <mxCell id="xdSkrrXWxzgrgBIP0NKi-26" style="edgeStyle=orthogonalEdgeStyle;rounded=0;orthogonalLoop=1;jettySize=auto;html=1;exitX=1;exitY=0.5;exitDx=0;exitDy=0;entryX=0;entryY=0.5;entryDx=0;entryDy=0;strokeColor=light-dark(#000000,#000000);" edge="1" parent="1" source="AxBwJtUhotN-UU5tkevl-34" target="AxBwJtUhotN-UU5tkevl-35">
          <mxGeometry relative="1" as="geometry" />
        </mxCell>
        <mxCell id="xdSkrrXWxzgrgBIP0NKi-28" style="edgeStyle=orthogonalEdgeStyle;rounded=0;orthogonalLoop=1;jettySize=auto;html=1;exitX=1;exitY=0.5;exitDx=0;exitDy=0;entryX=0;entryY=0.5;entryDx=0;entryDy=0;strokeColor=light-dark(#000000,#000000);" edge="1" parent="1" source="AxBwJtUhotN-UU5tkevl-34" target="AxBwJtUhotN-UU5tkevl-36">
          <mxGeometry relative="1" as="geometry" />
        </mxCell>
        <mxCell id="AxBwJtUhotN-UU5tkevl-34" value="&lt;font&gt;Data Tren&lt;/font&gt;" style="rounded=1;whiteSpace=wrap;html=1;fillColor=none;strokeColor=light-dark(#000000,#000000);fontColor=light-dark(#000000,#000000);" vertex="1" parent="1">
          <mxGeometry x="45" y="310" width="80" height="45" as="geometry" />
        </mxCell>
        <mxCell id="xdSkrrXWxzgrgBIP0NKi-18" style="edgeStyle=orthogonalEdgeStyle;rounded=0;orthogonalLoop=1;jettySize=auto;html=1;exitX=1;exitY=0.5;exitDx=0;exitDy=0;entryX=0;entryY=0.5;entryDx=0;entryDy=0;strokeColor=light-dark(#000000,#000000);" edge="1" parent="1" source="AxBwJtUhotN-UU5tkevl-35" target="xdSkrrXWxzgrgBIP0NKi-6">
          <mxGeometry relative="1" as="geometry" />
        </mxCell>
        <mxCell id="AxBwJtUhotN-UU5tkevl-35" value="&lt;font&gt;Data Tren Kabupaten&lt;/font&gt;" style="rounded=1;whiteSpace=wrap;html=1;fillColor=none;strokeColor=light-dark(#000000,#000000);fontColor=light-dark(#000000,#000000);" vertex="1" parent="1">
          <mxGeometry x="186" y="260" width="85" height="40" as="geometry" />
        </mxCell>
        <mxCell id="xdSkrrXWxzgrgBIP0NKi-20" style="edgeStyle=orthogonalEdgeStyle;rounded=0;orthogonalLoop=1;jettySize=auto;html=1;exitX=1;exitY=0.5;exitDx=0;exitDy=0;entryX=0;entryY=0.5;entryDx=0;entryDy=0;strokeColor=light-dark(#000000,#000000);" edge="1" parent="1" source="AxBwJtUhotN-UU5tkevl-36" target="xdSkrrXWxzgrgBIP0NKi-10">
          <mxGeometry relative="1" as="geometry" />
        </mxCell>
        <mxCell id="AxBwJtUhotN-UU5tkevl-36" value="&lt;font&gt;Data Tren Kecamatan&lt;/font&gt;" style="rounded=1;whiteSpace=wrap;html=1;fillColor=none;strokeColor=light-dark(#000000,#000000);fontColor=light-dark(#000000,#000000);" vertex="1" parent="1">
          <mxGeometry x="190" y="360" width="90" height="40" as="geometry" />
        </mxCell>
        <mxCell id="AxBwJtUhotN-UU5tkevl-114" style="edgeStyle=orthogonalEdgeStyle;rounded=0;orthogonalLoop=1;jettySize=auto;html=1;exitX=0.5;exitY=1;exitDx=0;exitDy=0;entryX=0;entryY=0.5;entryDx=0;entryDy=0;fontColor=light-dark(#000000,#000000);strokeColor=light-dark(#000000,#000000);" edge="1" parent="1" source="AxBwJtUhotN-UU5tkevl-63" target="AxBwJtUhotN-UU5tkevl-112">
          <mxGeometry relative="1" as="geometry" />
        </mxCell>
        <mxCell id="xdSkrrXWxzgrgBIP0NKi-37" style="edgeStyle=orthogonalEdgeStyle;rounded=0;orthogonalLoop=1;jettySize=auto;html=1;exitX=1;exitY=0.5;exitDx=0;exitDy=0;entryX=0;entryY=0.5;entryDx=0;entryDy=0;strokeColor=light-dark(#000000,#000000);" edge="1" parent="1" source="AxBwJtUhotN-UU5tkevl-63" target="AxBwJtUhotN-UU5tkevl-70">
          <mxGeometry relative="1" as="geometry" />
        </mxCell>
        <mxCell id="xdSkrrXWxzgrgBIP0NKi-38" style="edgeStyle=orthogonalEdgeStyle;rounded=0;orthogonalLoop=1;jettySize=auto;html=1;exitX=1;exitY=0.5;exitDx=0;exitDy=0;entryX=0;entryY=0.5;entryDx=0;entryDy=0;strokeColor=light-dark(#000000,#000000);" edge="1" parent="1" source="AxBwJtUhotN-UU5tkevl-63" target="AxBwJtUhotN-UU5tkevl-73">
          <mxGeometry relative="1" as="geometry" />
        </mxCell>
        <mxCell id="xdSkrrXWxzgrgBIP0NKi-39" style="edgeStyle=orthogonalEdgeStyle;rounded=0;orthogonalLoop=1;jettySize=auto;html=1;exitX=1;exitY=0.5;exitDx=0;exitDy=0;entryX=0;entryY=0.5;entryDx=0;entryDy=0;strokeColor=light-dark(#000000,#000000);" edge="1" parent="1" source="AxBwJtUhotN-UU5tkevl-63" target="AxBwJtUhotN-UU5tkevl-74">
          <mxGeometry relative="1" as="geometry" />
        </mxCell>
        <mxCell id="AxBwJtUhotN-UU5tkevl-63" value="&lt;font&gt;Analisis Spasial&lt;/font&gt;" style="rounded=1;whiteSpace=wrap;html=1;fillColor=none;strokeColor=light-dark(#000000,#000000);fontColor=light-dark(#000000,#000000);" vertex="1" parent="1">
          <mxGeometry x="40" y="570" width="90" height="40" as="geometry" />
        </mxCell>
        <mxCell id="xdSkrrXWxzgrgBIP0NKi-22" style="edgeStyle=orthogonalEdgeStyle;rounded=0;orthogonalLoop=1;jettySize=auto;html=1;exitX=1;exitY=0.5;exitDx=0;exitDy=0;entryX=0;entryY=0.5;entryDx=0;entryDy=0;strokeColor=light-dark(#000000,#000000);" edge="1" parent="1" source="AxBwJtUhotN-UU5tkevl-70" target="xdSkrrXWxzgrgBIP0NKi-12">
          <mxGeometry relative="1" as="geometry" />
        </mxCell>
        <mxCell id="AxBwJtUhotN-UU5tkevl-70" value="&lt;font&gt;Moran&#39;s Global&lt;/font&gt;" style="rounded=1;whiteSpace=wrap;html=1;fillColor=none;strokeColor=light-dark(#000000,#000000);fontColor=light-dark(#000000,#000000);" vertex="1" parent="1">
          <mxGeometry x="186" y="470" width="90" height="40" as="geometry" />
        </mxCell>
        <mxCell id="xdSkrrXWxzgrgBIP0NKi-29" style="edgeStyle=orthogonalEdgeStyle;rounded=0;orthogonalLoop=1;jettySize=auto;html=1;exitX=1;exitY=0.5;exitDx=0;exitDy=0;entryX=0;entryY=0.5;entryDx=0;entryDy=0;strokeColor=light-dark(#000000,#000000);" edge="1" parent="1" source="AxBwJtUhotN-UU5tkevl-73" target="xdSkrrXWxzgrgBIP0NKi-14">
          <mxGeometry relative="1" as="geometry" />
        </mxCell>
        <mxCell id="AxBwJtUhotN-UU5tkevl-73" value="&lt;font&gt;LISA Bivariat&lt;/font&gt;" style="rounded=1;whiteSpace=wrap;html=1;fillColor=none;strokeColor=light-dark(#000000,#000000);fontColor=light-dark(#000000,#000000);" vertex="1" parent="1">
          <mxGeometry x="186.5" y="570" width="90" height="40" as="geometry" />
        </mxCell>
        <mxCell id="xdSkrrXWxzgrgBIP0NKi-24" style="edgeStyle=orthogonalEdgeStyle;rounded=0;orthogonalLoop=1;jettySize=auto;html=1;exitX=1;exitY=0.5;exitDx=0;exitDy=0;entryX=0;entryY=0.5;entryDx=0;entryDy=0;strokeColor=light-dark(#000000,#000000);" edge="1" parent="1" source="AxBwJtUhotN-UU5tkevl-74" target="xdSkrrXWxzgrgBIP0NKi-16">
          <mxGeometry relative="1" as="geometry" />
        </mxCell>
        <mxCell id="AxBwJtUhotN-UU5tkevl-74" value="&lt;font&gt;Regresi Spasial&lt;/font&gt;" style="rounded=1;whiteSpace=wrap;html=1;fillColor=none;strokeColor=light-dark(#000000,#000000);fontColor=light-dark(#000000,#000000);" vertex="1" parent="1">
          <mxGeometry x="186" y="680" width="90" height="40" as="geometry" />
        </mxCell>
        <mxCell id="xdSkrrXWxzgrgBIP0NKi-60" style="edgeStyle=orthogonalEdgeStyle;rounded=0;orthogonalLoop=1;jettySize=auto;html=1;exitX=0.75;exitY=1;exitDx=0;exitDy=0;entryX=0.5;entryY=0;entryDx=0;entryDy=0;strokeColor=light-dark(#000000,#000000);" edge="1" parent="1" source="AxBwJtUhotN-UU5tkevl-91" target="AxBwJtUhotN-UU5tkevl-112">
          <mxGeometry relative="1" as="geometry" />
        </mxCell>
        <mxCell id="AxBwJtUhotN-UU5tkevl-91" value="&lt;font style=&quot;font-size: 14px;&quot;&gt;Menampilkan Hasil sesuai data yang dipilih&lt;/font&gt;" style="rounded=1;whiteSpace=wrap;html=1;fillColor=none;strokeColor=light-dark(#000000,#000000);align=center;fontColor=light-dark(#000000,#000000);" vertex="1" parent="1">
          <mxGeometry x="629" y="450" width="140" height="80" as="geometry" />
        </mxCell>
        <mxCell id="AxBwJtUhotN-UU5tkevl-112" value="&lt;span style=&quot;font-size: 10px;&quot;&gt;Selesai&lt;/span&gt;" style="ellipse;whiteSpace=wrap;html=1;fillColor=none;strokeColor=light-dark(#000000,#000000);fontColor=light-dark(#000000,#000000);" vertex="1" parent="1">
          <mxGeometry x="689" y="756" width="90" height="50" as="geometry" />
        </mxCell>
        <mxCell id="xdSkrrXWxzgrgBIP0NKi-19" style="edgeStyle=orthogonalEdgeStyle;rounded=0;orthogonalLoop=1;jettySize=auto;html=1;exitX=1;exitY=0.5;exitDx=0;exitDy=0;entryX=0;entryY=0.5;entryDx=0;entryDy=0;strokeColor=light-dark(#000000,#000000);" edge="1" parent="1" source="xdSkrrXWxzgrgBIP0NKi-6" target="xdSkrrXWxzgrgBIP0NKi-8">
          <mxGeometry relative="1" as="geometry" />
        </mxCell>
        <mxCell id="xdSkrrXWxzgrgBIP0NKi-49" style="edgeStyle=orthogonalEdgeStyle;rounded=0;orthogonalLoop=1;jettySize=auto;html=1;exitX=0.5;exitY=1;exitDx=0;exitDy=0;entryX=0.5;entryY=1;entryDx=0;entryDy=0;strokeColor=light-dark(#000000,#000000);" edge="1" parent="1" source="xdSkrrXWxzgrgBIP0NKi-6" target="AxBwJtUhotN-UU5tkevl-35">
          <mxGeometry relative="1" as="geometry" />
        </mxCell>
        <mxCell id="xdSkrrXWxzgrgBIP0NKi-6" value="&lt;font&gt;Filter&lt;/font&gt;" style="rhombus;whiteSpace=wrap;html=1;fillColor=none;strokeColor=light-dark(#000000,#000000);fontColor=light-dark(#000000,#000000);" vertex="1" parent="1">
          <mxGeometry x="324.5" y="256.25" width="80" height="47.5" as="geometry" />
        </mxCell>
        <mxCell id="xdSkrrXWxzgrgBIP0NKi-31" style="edgeStyle=orthogonalEdgeStyle;rounded=0;orthogonalLoop=1;jettySize=auto;html=1;exitX=1;exitY=0.5;exitDx=0;exitDy=0;entryX=0.5;entryY=0;entryDx=0;entryDy=0;strokeColor=light-dark(#000000,#000000);" edge="1" parent="1" source="xdSkrrXWxzgrgBIP0NKi-7" target="AxBwJtUhotN-UU5tkevl-91">
          <mxGeometry relative="1" as="geometry" />
        </mxCell>
        <mxCell id="xdSkrrXWxzgrgBIP0NKi-7" value="&lt;font style=&quot;color: light-dark(rgb(0, 0, 0), rgb(0, 0, 0));&quot;&gt;Pilih Tahun dan Triwulan&lt;/font&gt;" style="shape=parallelogram;perimeter=parallelogramPerimeter;whiteSpace=wrap;html=1;fixedSize=1;fillColor=none;strokeColor=light-dark(#000000,#000000);" vertex="1" parent="1">
          <mxGeometry x="324" y="160" width="120" height="50" as="geometry" />
        </mxCell>
        <mxCell id="xdSkrrXWxzgrgBIP0NKi-32" style="edgeStyle=orthogonalEdgeStyle;rounded=0;orthogonalLoop=1;jettySize=auto;html=1;exitX=1;exitY=0.5;exitDx=0;exitDy=0;entryX=0.5;entryY=0;entryDx=0;entryDy=0;strokeColor=light-dark(#000000,#000000);" edge="1" parent="1" source="xdSkrrXWxzgrgBIP0NKi-8" target="AxBwJtUhotN-UU5tkevl-91">
          <mxGeometry relative="1" as="geometry" />
        </mxCell>
        <mxCell id="xdSkrrXWxzgrgBIP0NKi-8" value="&lt;font style=&quot;color: light-dark(rgb(0, 0, 0), rgb(0, 0, 0));&quot;&gt;Pilih Rentang &lt;br&gt;Tahun Valid&lt;/font&gt;" style="shape=parallelogram;perimeter=parallelogramPerimeter;whiteSpace=wrap;html=1;fixedSize=1;fillColor=none;strokeColor=light-dark(#000000,#000000);" vertex="1" parent="1">
          <mxGeometry x="450" y="255" width="120" height="50" as="geometry" />
        </mxCell>
        <mxCell id="xdSkrrXWxzgrgBIP0NKi-21" style="edgeStyle=orthogonalEdgeStyle;rounded=0;orthogonalLoop=1;jettySize=auto;html=1;exitX=1;exitY=0.5;exitDx=0;exitDy=0;entryX=0;entryY=0.5;entryDx=0;entryDy=0;strokeColor=light-dark(#000000,#000000);" edge="1" parent="1" source="xdSkrrXWxzgrgBIP0NKi-10" target="xdSkrrXWxzgrgBIP0NKi-11">
          <mxGeometry relative="1" as="geometry" />
        </mxCell>
        <mxCell id="xdSkrrXWxzgrgBIP0NKi-50" style="edgeStyle=orthogonalEdgeStyle;rounded=0;orthogonalLoop=1;jettySize=auto;html=1;exitX=0.5;exitY=1;exitDx=0;exitDy=0;entryX=0.5;entryY=1;entryDx=0;entryDy=0;" edge="1" parent="1" source="xdSkrrXWxzgrgBIP0NKi-10" target="AxBwJtUhotN-UU5tkevl-36">
          <mxGeometry relative="1" as="geometry" />
        </mxCell>
        <mxCell id="xdSkrrXWxzgrgBIP0NKi-51" style="edgeStyle=orthogonalEdgeStyle;rounded=0;orthogonalLoop=1;jettySize=auto;html=1;exitX=0.5;exitY=1;exitDx=0;exitDy=0;entryX=0.5;entryY=1;entryDx=0;entryDy=0;strokeColor=light-dark(#000000,#000000);" edge="1" parent="1" source="xdSkrrXWxzgrgBIP0NKi-10" target="AxBwJtUhotN-UU5tkevl-36">
          <mxGeometry relative="1" as="geometry" />
        </mxCell>
        <mxCell id="xdSkrrXWxzgrgBIP0NKi-10" value="&lt;font&gt;Filter&lt;/font&gt;" style="rhombus;whiteSpace=wrap;html=1;fillColor=none;strokeColor=light-dark(#000000,#000000);fontColor=light-dark(#000000,#000000);" vertex="1" parent="1">
          <mxGeometry x="330" y="356.25" width="80" height="47.5" as="geometry" />
        </mxCell>
        <mxCell id="xdSkrrXWxzgrgBIP0NKi-33" style="edgeStyle=orthogonalEdgeStyle;rounded=0;orthogonalLoop=1;jettySize=auto;html=1;exitX=1;exitY=0.5;exitDx=0;exitDy=0;entryX=0.5;entryY=0;entryDx=0;entryDy=0;strokeColor=light-dark(#000000,#000000);" edge="1" parent="1" source="xdSkrrXWxzgrgBIP0NKi-11" target="AxBwJtUhotN-UU5tkevl-91">
          <mxGeometry relative="1" as="geometry" />
        </mxCell>
        <mxCell id="xdSkrrXWxzgrgBIP0NKi-11" value="&lt;font style=&quot;color: light-dark(rgb(0, 0, 0), rgb(0, 0, 0));&quot;&gt;Pilih Tahun dan Triwulan&lt;/font&gt;" style="shape=parallelogram;perimeter=parallelogramPerimeter;whiteSpace=wrap;html=1;fixedSize=1;fillColor=none;strokeColor=light-dark(#000000,#000000);" vertex="1" parent="1">
          <mxGeometry x="444.5" y="355" width="120" height="50" as="geometry" />
        </mxCell>
        <mxCell id="xdSkrrXWxzgrgBIP0NKi-23" style="edgeStyle=orthogonalEdgeStyle;rounded=0;orthogonalLoop=1;jettySize=auto;html=1;exitX=1;exitY=0.5;exitDx=0;exitDy=0;entryX=0;entryY=0.5;entryDx=0;entryDy=0;strokeColor=light-dark(#000000,#000000);" edge="1" parent="1" source="xdSkrrXWxzgrgBIP0NKi-12" target="xdSkrrXWxzgrgBIP0NKi-13">
          <mxGeometry relative="1" as="geometry" />
        </mxCell>
        <mxCell id="xdSkrrXWxzgrgBIP0NKi-52" style="edgeStyle=orthogonalEdgeStyle;rounded=0;orthogonalLoop=1;jettySize=auto;html=1;exitX=0.5;exitY=1;exitDx=0;exitDy=0;entryX=0.5;entryY=1;entryDx=0;entryDy=0;strokeColor=light-dark(#000000,#000000);" edge="1" parent="1" source="xdSkrrXWxzgrgBIP0NKi-12" target="AxBwJtUhotN-UU5tkevl-70">
          <mxGeometry relative="1" as="geometry" />
        </mxCell>
        <mxCell id="xdSkrrXWxzgrgBIP0NKi-12" value="&lt;font&gt;Filter&lt;/font&gt;" style="rhombus;whiteSpace=wrap;html=1;fillColor=none;strokeColor=light-dark(#000000,#000000);fontColor=light-dark(#000000,#000000);" vertex="1" parent="1">
          <mxGeometry x="329" y="466.25" width="80" height="47.5" as="geometry" />
        </mxCell>
        <mxCell id="xdSkrrXWxzgrgBIP0NKi-34" style="edgeStyle=orthogonalEdgeStyle;rounded=0;orthogonalLoop=1;jettySize=auto;html=1;exitX=1;exitY=0.5;exitDx=0;exitDy=0;entryX=0;entryY=0.5;entryDx=0;entryDy=0;strokeColor=light-dark(#000000,#000000);" edge="1" parent="1" source="xdSkrrXWxzgrgBIP0NKi-13" target="AxBwJtUhotN-UU5tkevl-91">
          <mxGeometry relative="1" as="geometry" />
        </mxCell>
        <mxCell id="xdSkrrXWxzgrgBIP0NKi-13" value="&lt;font style=&quot;color: light-dark(rgb(0, 0, 0), rgb(0, 0, 0));&quot;&gt;Pilih Tahun dan Triwulan&lt;/font&gt;" style="shape=parallelogram;perimeter=parallelogramPerimeter;whiteSpace=wrap;html=1;fixedSize=1;fillColor=none;strokeColor=light-dark(#000000,#000000);" vertex="1" parent="1">
          <mxGeometry x="441.5" y="465" width="120" height="50" as="geometry" />
        </mxCell>
        <mxCell id="xdSkrrXWxzgrgBIP0NKi-30" style="edgeStyle=orthogonalEdgeStyle;rounded=0;orthogonalLoop=1;jettySize=auto;html=1;exitX=1;exitY=0.5;exitDx=0;exitDy=0;entryX=0;entryY=0.5;entryDx=0;entryDy=0;strokeColor=light-dark(#000000,#000000);" edge="1" parent="1" source="xdSkrrXWxzgrgBIP0NKi-14" target="xdSkrrXWxzgrgBIP0NKi-15">
          <mxGeometry relative="1" as="geometry" />
        </mxCell>
        <mxCell id="xdSkrrXWxzgrgBIP0NKi-53" style="edgeStyle=orthogonalEdgeStyle;rounded=0;orthogonalLoop=1;jettySize=auto;html=1;exitX=0.5;exitY=1;exitDx=0;exitDy=0;entryX=0.5;entryY=1;entryDx=0;entryDy=0;strokeColor=light-dark(#000000,#000000);" edge="1" parent="1" source="xdSkrrXWxzgrgBIP0NKi-14" target="AxBwJtUhotN-UU5tkevl-73">
          <mxGeometry relative="1" as="geometry" />
        </mxCell>
        <mxCell id="xdSkrrXWxzgrgBIP0NKi-14" value="&lt;font&gt;Filter&lt;/font&gt;" style="rhombus;whiteSpace=wrap;html=1;fillColor=none;strokeColor=light-dark(#000000,#000000);fontColor=light-dark(#000000,#000000);" vertex="1" parent="1">
          <mxGeometry x="329" y="566.25" width="80" height="47.5" as="geometry" />
        </mxCell>
        <mxCell id="xdSkrrXWxzgrgBIP0NKi-35" style="edgeStyle=orthogonalEdgeStyle;rounded=0;orthogonalLoop=1;jettySize=auto;html=1;exitX=1;exitY=0.5;exitDx=0;exitDy=0;entryX=0.5;entryY=1;entryDx=0;entryDy=0;strokeColor=light-dark(#000000,#000000);" edge="1" parent="1" source="xdSkrrXWxzgrgBIP0NKi-15" target="AxBwJtUhotN-UU5tkevl-91">
          <mxGeometry relative="1" as="geometry" />
        </mxCell>
        <mxCell id="xdSkrrXWxzgrgBIP0NKi-15" value="&lt;font style=&quot;color: light-dark(rgb(0, 0, 0), rgb(0, 0, 0));&quot;&gt;Pilih Tahun, &lt;br&gt;Triwulan dan Variabel&lt;br&gt;Y&lt;/font&gt;" style="shape=parallelogram;perimeter=parallelogramPerimeter;whiteSpace=wrap;html=1;fixedSize=1;fillColor=none;strokeColor=light-dark(#000000,#000000);" vertex="1" parent="1">
          <mxGeometry x="439.5" y="565" width="149.5" height="50" as="geometry" />
        </mxCell>
        <mxCell id="xdSkrrXWxzgrgBIP0NKi-25" style="edgeStyle=orthogonalEdgeStyle;rounded=0;orthogonalLoop=1;jettySize=auto;html=1;exitX=1;exitY=0.5;exitDx=0;exitDy=0;entryX=0;entryY=0.5;entryDx=0;entryDy=0;strokeColor=light-dark(#000000,#000000);" edge="1" parent="1" source="xdSkrrXWxzgrgBIP0NKi-16" target="xdSkrrXWxzgrgBIP0NKi-17">
          <mxGeometry relative="1" as="geometry" />
        </mxCell>
        <mxCell id="xdSkrrXWxzgrgBIP0NKi-54" style="edgeStyle=orthogonalEdgeStyle;rounded=0;orthogonalLoop=1;jettySize=auto;html=1;exitX=0.5;exitY=1;exitDx=0;exitDy=0;entryX=0.5;entryY=1;entryDx=0;entryDy=0;strokeColor=light-dark(#000000,#000000);" edge="1" parent="1" source="xdSkrrXWxzgrgBIP0NKi-16" target="AxBwJtUhotN-UU5tkevl-74">
          <mxGeometry relative="1" as="geometry" />
        </mxCell>
        <mxCell id="xdSkrrXWxzgrgBIP0NKi-16" value="&lt;font&gt;Filter&lt;/font&gt;" style="rhombus;whiteSpace=wrap;html=1;fillColor=none;strokeColor=light-dark(#000000,#000000);fontColor=light-dark(#000000,#000000);" vertex="1" parent="1">
          <mxGeometry x="327" y="676.25" width="80" height="47.5" as="geometry" />
        </mxCell>
        <mxCell id="xdSkrrXWxzgrgBIP0NKi-36" style="edgeStyle=orthogonalEdgeStyle;rounded=0;orthogonalLoop=1;jettySize=auto;html=1;exitX=1;exitY=0.5;exitDx=0;exitDy=0;entryX=0.5;entryY=1;entryDx=0;entryDy=0;strokeColor=light-dark(#000000,#000000);" edge="1" parent="1" source="xdSkrrXWxzgrgBIP0NKi-17" target="AxBwJtUhotN-UU5tkevl-91">
          <mxGeometry relative="1" as="geometry" />
        </mxCell>
        <mxCell id="xdSkrrXWxzgrgBIP0NKi-17" value="&lt;font style=&quot;color: light-dark(rgb(0, 0, 0), rgb(0, 0, 0));&quot;&gt;&lt;span&gt;Pilih Tahun,&lt;/span&gt;&lt;br&gt;&lt;span&gt;Triwulan dan Variabel&lt;/span&gt;&lt;br&gt;&lt;span&gt;Y&lt;/span&gt;&lt;/font&gt;" style="shape=parallelogram;perimeter=parallelogramPerimeter;whiteSpace=wrap;html=1;fixedSize=1;fillColor=none;strokeColor=light-dark(#000000,#000000);" vertex="1" parent="1">
          <mxGeometry x="432.5" y="675" width="146.5" height="50" as="geometry" />
        </mxCell>
      </root>
    </mxGraphModel>
  </diagram>
  <diagram id="AFm6bEwOuPnvO7xRXbk2" name="Halaman-2">
    <mxGraphModel dx="1026" dy="601" grid="1" gridSize="10" guides="1" tooltips="1" connect="1" arrows="1" fold="1" page="1" pageScale="1" pageWidth="1169" pageHeight="827" background="light-dark(#FFFFFF,#FFFFFF)" math="0" shadow="0">
      <root>
        <mxCell id="0" />
        <mxCell id="1" parent="0" />
        <mxCell id="wSnMjlff5NPjhmsWlKdV-34" style="edgeStyle=orthogonalEdgeStyle;rounded=0;orthogonalLoop=1;jettySize=auto;html=1;exitX=0.5;exitY=1;exitDx=0;exitDy=0;entryX=0.5;entryY=0;entryDx=0;entryDy=0;strokeColor=light-dark(#000000,#000000);" edge="1" parent="1" source="wSnMjlff5NPjhmsWlKdV-2" target="wSnMjlff5NPjhmsWlKdV-3">
          <mxGeometry relative="1" as="geometry" />
        </mxCell>
        <mxCell id="wSnMjlff5NPjhmsWlKdV-2" value="&lt;font style=&quot;color: light-dark(rgb(0, 0, 0), rgb(0, 0, 0));&quot;&gt;Mulai&lt;/font&gt;" style="ellipse;whiteSpace=wrap;html=1;fillColor=none;strokeColor=light-dark(#000000,#000000);" vertex="1" parent="1">
          <mxGeometry x="26" y="50" width="90" height="40" as="geometry" />
        </mxCell>
        <mxCell id="wSnMjlff5NPjhmsWlKdV-6" style="edgeStyle=orthogonalEdgeStyle;rounded=0;orthogonalLoop=1;jettySize=auto;html=1;exitX=0.5;exitY=1;exitDx=0;exitDy=0;entryX=0.5;entryY=0;entryDx=0;entryDy=0;strokeColor=light-dark(#000000,#000000);" edge="1" parent="1" source="wSnMjlff5NPjhmsWlKdV-3" target="wSnMjlff5NPjhmsWlKdV-4">
          <mxGeometry relative="1" as="geometry" />
        </mxCell>
        <mxCell id="wSnMjlff5NPjhmsWlKdV-3" value="&lt;font style=&quot;color: light-dark(rgb(0, 0, 0), rgb(0, 0, 0));&quot;&gt;Dashboard Admin&lt;/font&gt;" style="rounded=1;whiteSpace=wrap;html=1;fillColor=none;strokeColor=light-dark(#000000,#000000);" vertex="1" parent="1">
          <mxGeometry x="26" y="130" width="90" height="40" as="geometry" />
        </mxCell>
        <mxCell id="wSnMjlff5NPjhmsWlKdV-20" style="edgeStyle=orthogonalEdgeStyle;rounded=0;orthogonalLoop=1;jettySize=auto;html=1;exitX=1;exitY=0.5;exitDx=0;exitDy=0;entryX=0;entryY=0.5;entryDx=0;entryDy=0;strokeColor=light-dark(#000000,#000000);" edge="1" parent="1" source="wSnMjlff5NPjhmsWlKdV-4" target="wSnMjlff5NPjhmsWlKdV-8">
          <mxGeometry relative="1" as="geometry">
            <mxPoint x="116" y="192.5" as="sourcePoint" />
          </mxGeometry>
        </mxCell>
        <mxCell id="wSnMjlff5NPjhmsWlKdV-21" style="edgeStyle=orthogonalEdgeStyle;rounded=0;orthogonalLoop=1;jettySize=auto;html=1;exitX=1;exitY=0.5;exitDx=0;exitDy=0;entryX=0;entryY=0.5;entryDx=0;entryDy=0;strokeColor=light-dark(#000000,#000000);" edge="1" parent="1" source="wSnMjlff5NPjhmsWlKdV-4" target="wSnMjlff5NPjhmsWlKdV-7">
          <mxGeometry relative="1" as="geometry">
            <mxPoint x="116" y="192.5" as="sourcePoint" />
          </mxGeometry>
        </mxCell>
        <mxCell id="wSnMjlff5NPjhmsWlKdV-22" style="edgeStyle=orthogonalEdgeStyle;rounded=0;orthogonalLoop=1;jettySize=auto;html=1;exitX=1;exitY=0.5;exitDx=0;exitDy=0;entryX=0;entryY=0.5;entryDx=0;entryDy=0;strokeColor=light-dark(#000000,#000000);" edge="1" parent="1" source="wSnMjlff5NPjhmsWlKdV-4" target="wSnMjlff5NPjhmsWlKdV-9">
          <mxGeometry relative="1" as="geometry">
            <mxPoint x="116" y="192.5" as="sourcePoint" />
          </mxGeometry>
        </mxCell>
        <mxCell id="wSnMjlff5NPjhmsWlKdV-53" style="edgeStyle=orthogonalEdgeStyle;rounded=0;orthogonalLoop=1;jettySize=auto;html=1;exitX=0.5;exitY=1;exitDx=0;exitDy=0;entryX=0;entryY=0.5;entryDx=0;entryDy=0;strokeColor=light-dark(#000000,#000000);" edge="1" parent="1" source="wSnMjlff5NPjhmsWlKdV-4" target="wSnMjlff5NPjhmsWlKdV-51">
          <mxGeometry relative="1" as="geometry" />
        </mxCell>
        <mxCell id="wSnMjlff5NPjhmsWlKdV-4" value="&lt;font style=&quot;color: light-dark(rgb(0, 0, 0), rgb(0, 0, 0));&quot;&gt;Data Master&lt;/font&gt;" style="rounded=1;whiteSpace=wrap;html=1;fillColor=none;strokeColor=light-dark(#000000,#000000);" vertex="1" parent="1">
          <mxGeometry x="26" y="280" width="90" height="35" as="geometry" />
        </mxCell>
        <mxCell id="wSnMjlff5NPjhmsWlKdV-17" style="edgeStyle=orthogonalEdgeStyle;rounded=0;orthogonalLoop=1;jettySize=auto;html=1;exitX=1;exitY=0.5;exitDx=0;exitDy=0;entryX=0;entryY=0.5;entryDx=0;entryDy=0;strokeColor=light-dark(#000000,#000000);" edge="1" parent="1" source="wSnMjlff5NPjhmsWlKdV-7" target="wSnMjlff5NPjhmsWlKdV-10">
          <mxGeometry relative="1" as="geometry" />
        </mxCell>
        <mxCell id="wSnMjlff5NPjhmsWlKdV-7" value="&lt;font style=&quot;color: light-dark(rgb(0, 0, 0), rgb(0, 0, 0));&quot;&gt;Data Kasus&lt;/font&gt;" style="rounded=1;whiteSpace=wrap;html=1;fillColor=none;strokeColor=light-dark(#000000,#000000);" vertex="1" parent="1">
          <mxGeometry x="206" y="180" width="80" height="30" as="geometry" />
        </mxCell>
        <mxCell id="wSnMjlff5NPjhmsWlKdV-18" style="edgeStyle=orthogonalEdgeStyle;rounded=0;orthogonalLoop=1;jettySize=auto;html=1;exitX=1;exitY=0.5;exitDx=0;exitDy=0;entryX=0;entryY=0.5;entryDx=0;entryDy=0;strokeColor=light-dark(#000000,#000000);" edge="1" parent="1" source="wSnMjlff5NPjhmsWlKdV-8" target="wSnMjlff5NPjhmsWlKdV-11">
          <mxGeometry relative="1" as="geometry" />
        </mxCell>
        <mxCell id="wSnMjlff5NPjhmsWlKdV-8" value="&lt;font style=&quot;color: light-dark(rgb(0, 0, 0), rgb(0, 0, 0));&quot;&gt;Data Klimatologi&lt;/font&gt;" style="rounded=1;whiteSpace=wrap;html=1;fillColor=none;strokeColor=light-dark(#000000,#000000);" vertex="1" parent="1">
          <mxGeometry x="206" y="280" width="90" height="33.75" as="geometry" />
        </mxCell>
        <mxCell id="wSnMjlff5NPjhmsWlKdV-19" style="edgeStyle=orthogonalEdgeStyle;rounded=0;orthogonalLoop=1;jettySize=auto;html=1;exitX=1;exitY=0.5;exitDx=0;exitDy=0;entryX=0;entryY=0.5;entryDx=0;entryDy=0;strokeColor=light-dark(#000000,#000000);" edge="1" parent="1" source="wSnMjlff5NPjhmsWlKdV-9" target="wSnMjlff5NPjhmsWlKdV-12">
          <mxGeometry relative="1" as="geometry" />
        </mxCell>
        <mxCell id="wSnMjlff5NPjhmsWlKdV-9" value="&lt;font style=&quot;color: light-dark(rgb(0, 0, 0), rgb(0, 0, 0));&quot;&gt;Data Demografi&lt;/font&gt;" style="rounded=1;whiteSpace=wrap;html=1;fillColor=none;strokeColor=light-dark(#000000,#000000);" vertex="1" parent="1">
          <mxGeometry x="206" y="405" width="90" height="25" as="geometry" />
        </mxCell>
        <mxCell id="wSnMjlff5NPjhmsWlKdV-15" style="edgeStyle=orthogonalEdgeStyle;rounded=0;orthogonalLoop=1;jettySize=auto;html=1;exitX=1;exitY=0.5;exitDx=0;exitDy=0;entryX=0.5;entryY=0;entryDx=0;entryDy=0;strokeColor=light-dark(#000000,#000000);" edge="1" parent="1" source="wSnMjlff5NPjhmsWlKdV-10" target="wSnMjlff5NPjhmsWlKdV-13">
          <mxGeometry relative="1" as="geometry">
            <mxPoint x="636" y="270" as="targetPoint" />
          </mxGeometry>
        </mxCell>
        <mxCell id="wSnMjlff5NPjhmsWlKdV-29" value="Ya" style="edgeLabel;html=1;align=center;verticalAlign=middle;resizable=0;points=[];labelBackgroundColor=none;fontColor=light-dark(#000000,#000000);" vertex="1" connectable="0" parent="wSnMjlff5NPjhmsWlKdV-15">
          <mxGeometry x="-0.4441" y="1" relative="1" as="geometry">
            <mxPoint y="-4" as="offset" />
          </mxGeometry>
        </mxCell>
        <mxCell id="wSnMjlff5NPjhmsWlKdV-30" value="Ya" style="edgeLabel;html=1;align=center;verticalAlign=middle;resizable=0;points=[];labelBackgroundColor=none;fontColor=light-dark(#000000,#000000);" vertex="1" connectable="0" parent="wSnMjlff5NPjhmsWlKdV-15">
          <mxGeometry x="-0.4441" y="1" relative="1" as="geometry">
            <mxPoint x="-23" y="96" as="offset" />
          </mxGeometry>
        </mxCell>
        <mxCell id="wSnMjlff5NPjhmsWlKdV-31" value="Ya" style="edgeLabel;html=1;align=center;verticalAlign=middle;resizable=0;points=[];labelBackgroundColor=none;fontColor=light-dark(#000000,#000000);" vertex="1" connectable="0" parent="wSnMjlff5NPjhmsWlKdV-15">
          <mxGeometry x="-0.4441" y="1" relative="1" as="geometry">
            <mxPoint x="2" y="216" as="offset" />
          </mxGeometry>
        </mxCell>
        <mxCell id="6CGBNNlJfk66aCaTFhNq-2" value="Ya" style="edgeLabel;html=1;align=center;verticalAlign=middle;resizable=0;points=[];labelBackgroundColor=none;fontColor=light-dark(#000000,#000000);" vertex="1" connectable="0" parent="wSnMjlff5NPjhmsWlKdV-15">
          <mxGeometry x="-0.4441" y="1" relative="1" as="geometry">
            <mxPoint x="376" y="96" as="offset" />
          </mxGeometry>
        </mxCell>
        <mxCell id="wSnMjlff5NPjhmsWlKdV-23" style="edgeStyle=orthogonalEdgeStyle;rounded=0;orthogonalLoop=1;jettySize=auto;html=1;exitX=0.5;exitY=1;exitDx=0;exitDy=0;entryX=0.5;entryY=1;entryDx=0;entryDy=0;strokeColor=light-dark(#000000,#000000);" edge="1" parent="1" source="wSnMjlff5NPjhmsWlKdV-10" target="wSnMjlff5NPjhmsWlKdV-7">
          <mxGeometry relative="1" as="geometry" />
        </mxCell>
        <mxCell id="wSnMjlff5NPjhmsWlKdV-26" value="Tidak" style="edgeLabel;html=1;align=center;verticalAlign=middle;resizable=0;points=[];labelBackgroundColor=none;fontColor=light-dark(#000000,#000000);" vertex="1" connectable="0" parent="wSnMjlff5NPjhmsWlKdV-23">
          <mxGeometry x="-0.1046" y="3" relative="1" as="geometry">
            <mxPoint x="-9" y="-8" as="offset" />
          </mxGeometry>
        </mxCell>
        <mxCell id="wSnMjlff5NPjhmsWlKdV-27" value="Tidak" style="edgeLabel;html=1;align=center;verticalAlign=middle;resizable=0;points=[];labelBackgroundColor=none;fontColor=light-dark(#000000,#000000);" vertex="1" connectable="0" parent="wSnMjlff5NPjhmsWlKdV-23">
          <mxGeometry x="-0.1046" y="3" relative="1" as="geometry">
            <mxPoint x="-9" y="87" as="offset" />
          </mxGeometry>
        </mxCell>
        <mxCell id="wSnMjlff5NPjhmsWlKdV-28" value="Tidak" style="edgeLabel;html=1;align=center;verticalAlign=middle;resizable=0;points=[];labelBackgroundColor=none;fontColor=light-dark(#000000,#000000);" vertex="1" connectable="0" parent="wSnMjlff5NPjhmsWlKdV-23">
          <mxGeometry x="-0.1046" y="3" relative="1" as="geometry">
            <mxPoint x="-9" y="207" as="offset" />
          </mxGeometry>
        </mxCell>
        <mxCell id="wSnMjlff5NPjhmsWlKdV-46" value="Tidak" style="edgeLabel;html=1;align=center;verticalAlign=middle;resizable=0;points=[];labelBackgroundColor=none;fontColor=light-dark(#000000,#000000);" vertex="1" connectable="0" parent="wSnMjlff5NPjhmsWlKdV-23">
          <mxGeometry x="-0.1046" y="3" relative="1" as="geometry">
            <mxPoint x="299" y="112" as="offset" />
          </mxGeometry>
        </mxCell>
        <mxCell id="wSnMjlff5NPjhmsWlKdV-47" value="Tidak" style="edgeLabel;html=1;align=center;verticalAlign=middle;resizable=0;points=[];labelBackgroundColor=none;fontColor=light-dark(#000000,#000000);" vertex="1" connectable="0" parent="wSnMjlff5NPjhmsWlKdV-23">
          <mxGeometry x="-0.1046" y="3" relative="1" as="geometry">
            <mxPoint x="336" y="-128" as="offset" />
          </mxGeometry>
        </mxCell>
        <mxCell id="wSnMjlff5NPjhmsWlKdV-10" value="&lt;font style=&quot;color: light-dark(rgb(0, 0, 0), rgb(0, 0, 0));&quot;&gt;Tambah Data Baru&lt;/font&gt;" style="rhombus;whiteSpace=wrap;html=1;fillColor=none;strokeColor=light-dark(#000000,#000000);" vertex="1" parent="1">
          <mxGeometry x="356" y="155" width="94" height="80" as="geometry" />
        </mxCell>
        <mxCell id="wSnMjlff5NPjhmsWlKdV-14" style="edgeStyle=orthogonalEdgeStyle;rounded=0;orthogonalLoop=1;jettySize=auto;html=1;exitX=1;exitY=0.5;exitDx=0;exitDy=0;entryX=0;entryY=0.5;entryDx=0;entryDy=0;strokeColor=light-dark(#000000,#000000);" edge="1" parent="1" source="wSnMjlff5NPjhmsWlKdV-11" target="wSnMjlff5NPjhmsWlKdV-13">
          <mxGeometry relative="1" as="geometry">
            <mxPoint x="436" y="296.31" as="sourcePoint" />
            <mxPoint x="586" y="296.93" as="targetPoint" />
          </mxGeometry>
        </mxCell>
        <mxCell id="wSnMjlff5NPjhmsWlKdV-24" style="edgeStyle=orthogonalEdgeStyle;rounded=0;orthogonalLoop=1;jettySize=auto;html=1;exitX=0.5;exitY=1;exitDx=0;exitDy=0;entryX=0.5;entryY=1;entryDx=0;entryDy=0;strokeColor=light-dark(#000000,#000000);" edge="1" parent="1" source="wSnMjlff5NPjhmsWlKdV-11" target="wSnMjlff5NPjhmsWlKdV-8">
          <mxGeometry relative="1" as="geometry" />
        </mxCell>
        <mxCell id="wSnMjlff5NPjhmsWlKdV-11" value="&lt;font style=&quot;color: light-dark(rgb(0, 0, 0), rgb(0, 0, 0));&quot;&gt;Tambah Data Baru&lt;/font&gt;" style="rhombus;whiteSpace=wrap;html=1;fillColor=none;strokeColor=light-dark(#000000,#000000);" vertex="1" parent="1">
          <mxGeometry x="349" y="257.82" width="94" height="78.12" as="geometry" />
        </mxCell>
        <mxCell id="wSnMjlff5NPjhmsWlKdV-16" style="edgeStyle=orthogonalEdgeStyle;rounded=0;orthogonalLoop=1;jettySize=auto;html=1;exitX=1;exitY=0.5;exitDx=0;exitDy=0;entryX=0.5;entryY=1;entryDx=0;entryDy=0;strokeColor=light-dark(#000000,#000000);" edge="1" parent="1" source="wSnMjlff5NPjhmsWlKdV-12" target="wSnMjlff5NPjhmsWlKdV-13">
          <mxGeometry relative="1" as="geometry">
            <mxPoint x="636" y="325" as="targetPoint" />
          </mxGeometry>
        </mxCell>
        <mxCell id="wSnMjlff5NPjhmsWlKdV-12" value="&lt;font style=&quot;color: light-dark(rgb(0, 0, 0), rgb(0, 0, 0));&quot;&gt;Tambah Data Baru&lt;/font&gt;" style="rhombus;whiteSpace=wrap;html=1;fillColor=none;strokeColor=light-dark(#000000,#000000);" vertex="1" parent="1">
          <mxGeometry x="356" y="385" width="94" height="65" as="geometry" />
        </mxCell>
        <mxCell id="wSnMjlff5NPjhmsWlKdV-35" style="edgeStyle=orthogonalEdgeStyle;rounded=0;orthogonalLoop=1;jettySize=auto;html=1;exitX=1;exitY=0.5;exitDx=0;exitDy=0;entryX=0;entryY=0.5;entryDx=0;entryDy=0;strokeColor=light-dark(#000000,#000000);" edge="1" parent="1" source="wSnMjlff5NPjhmsWlKdV-13" target="wSnMjlff5NPjhmsWlKdV-32">
          <mxGeometry relative="1" as="geometry" />
        </mxCell>
        <mxCell id="wSnMjlff5NPjhmsWlKdV-13" value="&lt;font style=&quot;color: light-dark(rgb(0, 0, 0), rgb(0, 0, 0));&quot;&gt;Formulir Tambah Data&lt;/font&gt;" style="rounded=1;whiteSpace=wrap;html=1;fillColor=none;strokeColor=light-dark(#000000,#000000);" vertex="1" parent="1">
          <mxGeometry x="486" y="275.94" width="80" height="43.12" as="geometry" />
        </mxCell>
        <mxCell id="wSnMjlff5NPjhmsWlKdV-25" style="edgeStyle=orthogonalEdgeStyle;rounded=0;orthogonalLoop=1;jettySize=auto;html=1;exitX=0.5;exitY=1;exitDx=0;exitDy=0;entryX=0.437;entryY=1.013;entryDx=0;entryDy=0;entryPerimeter=0;strokeColor=light-dark(#000000,#000000);" edge="1" parent="1" source="wSnMjlff5NPjhmsWlKdV-12" target="wSnMjlff5NPjhmsWlKdV-9">
          <mxGeometry relative="1" as="geometry" />
        </mxCell>
        <mxCell id="wSnMjlff5NPjhmsWlKdV-37" style="edgeStyle=orthogonalEdgeStyle;rounded=0;orthogonalLoop=1;jettySize=auto;html=1;exitX=1;exitY=0.5;exitDx=0;exitDy=0;entryX=0;entryY=0.5;entryDx=0;entryDy=0;strokeColor=light-dark(#000000,#000000);" edge="1" parent="1" source="wSnMjlff5NPjhmsWlKdV-32" target="wSnMjlff5NPjhmsWlKdV-36">
          <mxGeometry relative="1" as="geometry">
            <mxPoint x="741" y="292.5" as="targetPoint" />
          </mxGeometry>
        </mxCell>
        <mxCell id="wSnMjlff5NPjhmsWlKdV-32" value="&lt;font style=&quot;color: light-dark(rgb(0, 0, 0), rgb(0, 0, 0));&quot;&gt;Masukkan Data&lt;/font&gt;" style="shape=parallelogram;perimeter=parallelogramPerimeter;whiteSpace=wrap;html=1;fixedSize=1;fillColor=none;strokeColor=light-dark(#000000,#000000);" vertex="1" parent="1">
          <mxGeometry x="601" y="277.5" width="110" height="40" as="geometry" />
        </mxCell>
        <mxCell id="wSnMjlff5NPjhmsWlKdV-40" style="edgeStyle=orthogonalEdgeStyle;rounded=0;orthogonalLoop=1;jettySize=auto;html=1;exitX=0.5;exitY=0;exitDx=0;exitDy=0;entryX=0.5;entryY=0;entryDx=0;entryDy=0;strokeColor=light-dark(#000000,#000000);" edge="1" parent="1" source="wSnMjlff5NPjhmsWlKdV-36" target="wSnMjlff5NPjhmsWlKdV-7">
          <mxGeometry relative="1" as="geometry">
            <Array as="points">
              <mxPoint x="790" y="140" />
              <mxPoint x="246" y="140" />
            </Array>
          </mxGeometry>
        </mxCell>
        <mxCell id="wSnMjlff5NPjhmsWlKdV-41" style="edgeStyle=orthogonalEdgeStyle;rounded=0;orthogonalLoop=1;jettySize=auto;html=1;exitX=0.5;exitY=1;exitDx=0;exitDy=0;entryX=0.5;entryY=0;entryDx=0;entryDy=0;strokeColor=light-dark(#000000,#000000);" edge="1" parent="1" source="wSnMjlff5NPjhmsWlKdV-36" target="wSnMjlff5NPjhmsWlKdV-9">
          <mxGeometry relative="1" as="geometry">
            <Array as="points">
              <mxPoint x="790" y="380" />
              <mxPoint x="251" y="380" />
            </Array>
          </mxGeometry>
        </mxCell>
        <mxCell id="wSnMjlff5NPjhmsWlKdV-44" style="edgeStyle=orthogonalEdgeStyle;rounded=0;orthogonalLoop=1;jettySize=auto;html=1;entryX=0.5;entryY=1;entryDx=0;entryDy=0;strokeColor=light-dark(#000000,#000000);" edge="1" parent="1" target="wSnMjlff5NPjhmsWlKdV-8">
          <mxGeometry relative="1" as="geometry">
            <mxPoint x="790" y="332" as="sourcePoint" />
            <Array as="points">
              <mxPoint x="790" y="380" />
              <mxPoint x="251" y="380" />
            </Array>
          </mxGeometry>
        </mxCell>
        <mxCell id="wSnMjlff5NPjhmsWlKdV-36" value="&lt;font style=&quot;color: light-dark(rgb(0, 0, 0), rgb(0, 0, 0));&quot;&gt;Simpan Data&lt;/font&gt;" style="rhombus;whiteSpace=wrap;html=1;fillColor=none;strokeColor=light-dark(#000000,#000000);" vertex="1" parent="1">
          <mxGeometry x="750" y="264.38" width="80" height="67.5" as="geometry" />
        </mxCell>
        <mxCell id="wSnMjlff5NPjhmsWlKdV-52" style="edgeStyle=orthogonalEdgeStyle;rounded=0;orthogonalLoop=1;jettySize=auto;html=1;exitX=0.5;exitY=1;exitDx=0;exitDy=0;exitPerimeter=0;entryX=1;entryY=0.5;entryDx=0;entryDy=0;strokeColor=light-dark(#000000,#000000);" edge="1" parent="1" source="wSnMjlff5NPjhmsWlKdV-38" target="wSnMjlff5NPjhmsWlKdV-51">
          <mxGeometry relative="1" as="geometry" />
        </mxCell>
        <mxCell id="wSnMjlff5NPjhmsWlKdV-38" value="&lt;font style=&quot;color: light-dark(rgb(0, 0, 0), rgb(0, 0, 0));&quot;&gt;Database&lt;/font&gt;" style="shape=cylinder3;whiteSpace=wrap;html=1;boundedLbl=1;backgroundOutline=1;size=15;fillColor=none;strokeColor=light-dark(#000000,#000000);" vertex="1" parent="1">
          <mxGeometry x="870" y="335.94" width="80" height="96.88" as="geometry" />
        </mxCell>
        <mxCell id="wSnMjlff5NPjhmsWlKdV-48" style="edgeStyle=orthogonalEdgeStyle;rounded=0;orthogonalLoop=1;jettySize=auto;html=1;exitX=1;exitY=0.5;exitDx=0;exitDy=0;entryX=0.5;entryY=0;entryDx=0;entryDy=0;entryPerimeter=0;strokeColor=light-dark(#000000,#000000);" edge="1" parent="1" source="wSnMjlff5NPjhmsWlKdV-36" target="wSnMjlff5NPjhmsWlKdV-38">
          <mxGeometry relative="1" as="geometry" />
        </mxCell>
        <mxCell id="wSnMjlff5NPjhmsWlKdV-51" value="&lt;font style=&quot;color: light-dark(rgb(0, 0, 0), rgb(0, 0, 0));&quot;&gt;Selesai&lt;/font&gt;" style="ellipse;whiteSpace=wrap;html=1;fillColor=none;strokeColor=light-dark(#000000,#000000);" vertex="1" parent="1">
          <mxGeometry x="711" y="480" width="90" height="40" as="geometry" />
        </mxCell>
      </root>
    </mxGraphModel>
  </diagram>
</mxfile>
